# xmcd CD database file
#
# Track frame offsets:
#	150
#	26035
#	35500
#	56589
#	76134
#	98172
#	132364
#	163345
#	186468
#	208111
#	229341
#	256944
#
# Disc length: 3698 seconds
#
# Revision: 1
# Processed by: cddbd v1.5.1PL2 Copyright (c) Steve Scherf et al.
# Submitted via: CDex 1.51
#
DISCID=a90e700c
DTITLE=Various Artist - The Most Relaxing New Age Music In The Universe [CD1]
DYEAR=2005
DGENRE=New Age
TTITLE0=Kitaro - Message From The Cosmos
TTITLE1=Mari Fujiwara - Water Mark
TTITLE2=Toshiyke Watanabe - White Fantasy
TTITLE3=Hideo Shimazu - Calmness
TTITLE4=Kitaro - The Field
TTITLE5=Takedake and Neptune - Japanese Roots
TTITLE6=Febian Reza Pane - Borobudur
TTITLE7=Manabu Ohishi - A White Pass to the Creek
TTITLE8=Kitaro - Shimmering Horizon
TTITLE9=Mari Fujiwara - Wind Forest
TTITLE10=Keiichi Uko - Kingdom
TTITLE11=Hideo Shimazu - Spring Prayer
EXTD=YEAR: 2005
EXTT0=
EXTT1=
EXTT2=
EXTT3=
EXTT4=
EXTT5=
EXTT6=
EXTT7=
EXTT8=
EXTT9=
EXTT10=
EXTT11=
PLAYORDER=
